<?xml version="1.0" standalone="no"?>
<!DOCTYPE svg PUBLIC "-//W3C//DTD SVG 20010904//EN"
 "http://www.w3.org/TR/2001/REC-SVG-20010904/DTD/svg10.dtd">
<svg version="1.0" xmlns="http://www.w3.org/2000/svg"
 width="247.000000pt" height="247.000000pt" viewBox="0 0 247.000000 247.000000"
 preserveAspectRatio="xMidYMid meet">
<metadata>
Created by potrace 1.14, written by Peter Selinger 2001-2017
</metadata>
<g transform="translate(0.000000,247.000000) scale(0.100000,-0.100000)"
fill="#000000" stroke="none">
<path d="M1303 2312 c8 -11 -20 -25 -34 -16 -5 3 -9 -2 -9 -11 0 -9 -29 -29
-76 -51 -97 -45 -193 -116 -221 -162 -32 -52 -28 -62 5 -16 62 85 140 134 280
175 45 13 72 26 72 35 0 10 15 14 62 14 67 0 71 8 11 21 -21 4 -51 11 -67 15
-19 5 -27 3 -23 -4z"/>
<path d="M1610 2234 c0 -5 34 -29 75 -53 41 -25 84 -55 96 -67 l21 -23 -31 4
c-17 2 -58 20 -90 40 -80 50 -169 76 -276 82 -157 9 -276 -32 -373 -128 -93
-91 -125 -190 -115 -348 l6 -92 46 -41 c62 -54 122 -95 206 -140 71 -38 70
-46 -4 -39 -38 3 -19 -21 30 -38 27 -10 66 -38 103 -74 52 -52 58 -61 53 -90
-3 -18 2 -56 10 -85 9 -32 11 -58 6 -63 -17 -17 -127 -31 -195 -26 -90 8 -188
39 -276 88 -64 35 -72 43 -66 62 27 90 105 176 177 198 43 12 66 39 33 39 -8
0 -48 25 -89 56 -60 45 -74 60 -69 76 5 20 4 20 -25 -2 -27 -20 -35 -21 -66
-11 -33 11 -113 6 -121 -8 -2 -3 21 -7 52 -7 93 -1 194 -58 151 -85 -8 -5 -10
-9 -6 -9 4 0 -2 -10 -13 -22 -11 -13 -23 -33 -27 -46 -4 -18 -8 -21 -14 -10
-7 10 -9 9 -9 -4 0 -10 0 -21 1 -24 0 -3 -9 -14 -20 -23 -12 -10 -21 -28 -21
-40 0 -11 -4 -21 -10 -21 -5 0 -9 -3 -9 -7 4 -25 -3 -39 -21 -40 -13 -1 -18 2
-13 10 5 9 3 9 -8 0 -17 -14 -82 -2 -130 23 -21 10 -29 11 -29 3 0 -7 -11 -2
-25 11 -19 18 -28 21 -37 12 -13 -13 6 -42 28 -42 8 0 14 -4 14 -8 0 -8 14
-12 53 -13 9 0 15 -4 12 -9 -3 -5 -1 -11 5 -15 5 -3 10 0 10 7 0 8 5 7 17 -5
25 -25 12 -29 -36 -10 -35 14 -46 14 -63 4 -16 -10 -18 -10 -12 0 5 8 2 11 -8
6 -12 -4 -15 0 -11 16 4 18 2 16 -10 -5 -9 -16 -19 -49 -23 -75 -3 -27 -20
-76 -36 -111 -26 -57 -28 -67 -17 -100 23 -71 59 -132 88 -146 31 -17 41 -34
41 -72 0 -39 -17 -61 -55 -74 -19 -6 -35 -16 -35 -21 0 -6 -4 -8 -9 -4 -5 3
-12 1 -16 -5 -3 -5 -16 -15 -28 -20 -21 -11 -21 -11 -3 4 24 20 15 30 -19 22
-44 -11 -65 -41 -65 -91 0 -35 4 -47 18 -52 56 -19 122 -54 159 -86 27 -22 74
-46 125 -63 46 -15 108 -38 138 -52 30 -13 95 -32 144 -43 l90 -19 26 25 c30
28 71 33 90 9 18 -20 69 -41 147 -59 94 -22 155 -19 211 9 26 13 76 28 112 35
146 25 221 64 257 134 16 32 16 32 -5 14 -11 -10 -23 -14 -26 -9 -3 5 1 15 9
22 8 7 15 22 15 34 0 17 2 18 10 6 8 -12 10 -10 11 10 1 14 1 28 0 33 0 4 3 7
8 7 5 0 15 16 21 35 7 20 23 56 37 80 14 25 32 71 40 103 16 62 23 265 11 322
-4 19 -3 37 1 40 4 3 10 12 13 20 3 8 13 -21 23 -64 13 -60 16 -104 12 -185
-3 -58 -8 -115 -11 -126 -4 -11 2 -4 11 15 39 77 8 361 -44 411 -20 19 -148
51 -208 51 -34 0 -37 2 -22 13 15 11 16 13 2 19 -9 3 -15 18 -15 37 0 27 -2
30 -15 19 -18 -15 -20 1 -2 19 7 8 7 11 1 8 -7 -4 -17 0 -24 9 -7 8 -19 13
-27 10 -7 -3 -13 -1 -13 4 0 6 35 10 80 10 l80 0 -6 26 c-5 18 0 34 17 57 21
28 24 43 25 127 1 89 4 102 44 195 55 130 59 158 26 223 -19 37 -27 70 -28
112 -1 39 -6 60 -14 60 -6 0 -17 6 -24 14 -40 50 -230 140 -230 110z m-295
-197 c-114 -131 -161 -304 -121 -455 9 -36 10 -52 2 -52 -25 1 -93 59 -121
105 -28 45 -30 56 -30 139 0 74 5 101 24 143 39 89 125 154 225 172 66 12 70
3 21 -52z m325 -496 c-5 -11 -15 -23 -21 -27 -6 -3 -3 5 6 20 20 30 30 35 15
7z m73 -345 c3 -8 0 -20 -8 -26 -11 -9 -16 -6 -26 12 -11 21 -11 22 4 9 15
-12 17 -11 17 3 0 20 6 21 13 2z m-1050 -26 c-3 -12 -8 -19 -11 -16 -5 6 5 36
12 36 2 0 2 -9 -1 -20z m24 -6 c-3 -4 -1 -16 5 -28 10 -20 9 -20 -7 -4 -15 14
-14 38 2 38 4 0 3 -3 0 -6z m167 -47 c39 -34 178 -96 253 -113 68 -15 159 -16
248 -2 15 2 19 -2 17 -17 -2 -11 -8 -21 -13 -23 -5 -2 -9 -11 -9 -19 0 -9 -8
-22 -17 -30 -10 -8 -12 -11 -4 -7 9 5 12 3 7 -4 -4 -7 -16 -17 -28 -23 -16 -9
-19 -8 -12 3 4 7 -6 -1 -24 -19 -18 -17 -32 -36 -32 -42 0 -6 -3 -10 -7 -9 -5
0 -26 -7 -48 -17 -76 -33 -265 1 -360 66 -34 24 -35 25 -35 94 1 86 27 225 38
195 3 -8 15 -23 26 -33z m-131 8 c-3 -9 -8 -14 -10 -11 -3 3 -2 9 2 15 9 16
15 13 8 -4z m24 -27 c-3 -8 -6 -5 -6 6 -1 11 2 17 5 13 3 -3 4 -12 1 -19z m19
-74 c-3 -9 -6 -19 -6 -24 0 -4 -6 -10 -14 -13 -12 -5 -13 -1 -4 24 5 16 14 29
20 29 6 0 7 -7 4 -16z m1088 -99 l58 -28 -5 -44 c-6 -55 -75 -199 -89 -185 -5
5 -9 18 -9 28 3 97 -1 160 -9 162 -6 2 -8 8 -4 13 3 5 0 9 -6 9 -6 0 -9 4 -6
9 3 5 -1 12 -10 15 -9 3 -14 12 -11 20 4 10 -1 12 -16 8 -12 -3 -19 -1 -15 3
4 5 3 14 -2 20 -17 20 57 2 124 -30z m-849 -170 c50 -13 88 -25 85 -26 -36
-13 -178 24 -205 53 -7 8 -4 9 10 4 11 -5 61 -19 110 -31z m-292 -221 c52 -18
54 -19 61 -58 3 -16 8 -31 10 -34 3 -3 1 -11 -5 -19 -9 -9 -8 -13 0 -13 8 0 8
-5 -1 -19 -11 -18 -12 -18 -32 0 -11 11 -23 20 -28 20 -13 2 -28 6 -30 9 -2 1
-11 3 -20 5 -12 2 -15 -2 -10 -13 5 -14 3 -15 -9 -5 -8 7 -24 12 -34 11 -30 0
-125 26 -125 34 0 5 -7 8 -15 8 -30 0 3 37 57 64 60 30 114 33 181 10z m406
-266 c5 -13 7 -25 5 -27 -7 -7 -34 21 -34 35 0 22 20 16 29 -8z m59 -30 c11
-28 7 -34 -14 -20 -15 10 -25 42 -18 54 7 12 16 2 32 -34z"/>
<path d="M922 1985 c-7 -14 -12 -31 -12 -38 1 -7 7 3 16 22 17 39 13 54 -4 16z"/>
<path d="M1080 1432 c0 -5 14 -12 30 -14 33 -5 28 6 -7 17 -13 3 -23 2 -23 -3z"/>
<path d="M1951 568 c-6 -18 -29 -65 -52 -103 l-40 -70 35 34 c24 24 41 54 55
100 20 66 22 100 2 39z"/>
</g>
</svg>
